<?xml version="1.0" standalone="no"?>
<!DOCTYPE svg PUBLIC "-//W3C//DTD SVG 20010904//EN"
 "http://www.w3.org/TR/2001/REC-SVG-20010904/DTD/svg10.dtd">
<svg version="1.0" xmlns="http://www.w3.org/2000/svg"
 width="106.000000pt" height="44.000000pt" viewBox="0 0 106.000000 44.000000"
 preserveAspectRatio="xMidYMid meet">

<g transform="translate(0.000000,44.000000) scale(0.100000,-0.100000)"
fill="#000000" stroke="none">
<path d="M592 302 l-33 -3 3 -82 3 -82 59 -3 c78 -4 95 11 95 83 -1 29 -5 58
-9 65 -9 15 -72 26 -118 22z"/>
<path d="M972 294 c-24 -16 -29 -53 -10 -72 9 -9 8 -15 -6 -25 -17 -13 -17
-15 -2 -45 19 -38 21 -38 64 -12 31 19 32 22 30 77 -2 91 -24 113 -76 77z"/>
<path d="M10 227 c0 -43 5 -78 12 -85 7 -7 36 -12 64 -12 69 0 84 20 84 107
l0 63 -80 0 -80 0 0 -73z"/>
<path d="M196 217 l0 -82 82 -3 c45 -2 82 0 82 3 0 3 -7 19 -15 35 -9 18 -11
31 -5 35 6 3 10 22 10 40 0 44 -20 55 -97 55 l-58 0 1 -83z"/>
<path d="M380 227 c0 -43 5 -78 12 -85 16 -16 100 -15 120 1 12 8 17 32 20 82
l3 70 -77 3 -78 3 0 -74z"/>
<path d="M750 237 c0 -86 16 -107 80 -107 68 0 80 15 80 100 l0 69 -80 0 -80
0 0 -62z m87 -19 c-2 -13 -4 -3 -4 22 0 25 2 35 4 23 2 -13 2 -33 0 -45z"/>
</g>
</svg>
